<?xml version="1.0" standalone="no"?>
<!DOCTYPE svg PUBLIC "-//W3C//DTD SVG 20010904//EN"
 "http://www.w3.org/TR/2001/REC-SVG-20010904/DTD/svg10.dtd">
<svg version="1.0" xmlns="http://www.w3.org/2000/svg"
 width="500.000000pt" height="500.000000pt" viewBox="0 0 500.000000 500.000000"
 preserveAspectRatio="xMidYMid meet">
<metadata>
Created by potrace 1.14, written by Peter Selinger 2001-2017
</metadata>
<g transform="translate(0.000000,500.000000) scale(0.100000,-0.100000)"
fill="#000000" stroke="none">
<path d="M906 4128 c9 -30 23 -49 70 -101 22 -23 56 -62 76 -87 41 -51 110
-179 102 -192 -5 -7 -39 7 -147 62 l-37 19 -16 -24 c-14 -22 -14 -27 0 -57 9
-18 66 -85 126 -148 61 -63 110 -120 110 -127 0 -13 -49 -8 -82 9 -9 4 -21 7
-25 7 -9 -2 -39 8 -65 22 -24 12 -48 -14 -42 -48 8 -43 23 -65 85 -123 76 -72
86 -80 99 -80 7 0 10 -6 7 -12 -4 -14 -42 -14 -114 -3 -39 6 -43 5 -43 -13 0
-22 24 -47 108 -112 80 -63 67 -104 -26 -82 -35 8 -49 7 -54 -1 -7 -11 -6 -19
6 -73 5 -25 -19 -64 -39 -64 -8 0 -22 -11 -31 -25 -14 -22 -14 -26 2 -53 9
-16 30 -37 45 -46 22 -13 27 -21 21 -34 -11 -22 -9 -31 10 -67 8 -16 18 -50
22 -75 12 -86 17 -115 37 -195 11 -44 22 -87 24 -95 11 -49 21 -81 42 -134
l23 -60 -30 -37 c-16 -21 -30 -43 -30 -48 0 -6 -5 -11 -10 -11 -6 0 -9 -3 -9
-7 4 -25 -3 -35 -18 -29 -10 4 15 -25 55 -63 40 -38 70 -71 65 -74 -13 -7
-345 -1 -483 8 -137 10 -392 11 -455 2 -73 -9 -115 -19 -121 -28 -9 -16 47
-22 144 -14 53 4 171 7 262 7 91 -1 286 -1 434 -1 259 -1 270 -2 305 -23 35
-22 35 -22 11 -28 -32 -8 -315 -4 -445 5 -258 20 -575 6 -575 -25 0 -14 37
-18 121 -12 46 3 285 5 531 4 l448 -2 57 -29 c106 -52 260 -98 398 -118 121
-17 321 -2 443 33 29 9 67 17 85 20 17 2 43 6 57 9 14 3 41 8 60 11 19 3 91
21 159 40 244 66 372 88 516 88 68 0 180 -9 180 -14 0 -1 9 -3 20 -4 11 -2 40
-7 65 -11 80 -13 103 -15 200 -14 150 1 299 20 373 48 15 6 27 9 27 7 0 -2 23
2 51 9 53 14 308 14 379 1 19 -4 44 -9 55 -11 106 -17 114 -22 87 -51 -10 -10
-40 -55 -67 -99 -27 -44 -53 -81 -57 -83 -5 -2 -8 -9 -8 -15 0 -7 -10 -32 -22
-57 -72 -149 -81 -237 -35 -331 51 -104 144 -161 254 -155 35 2 71 11 87 21
14 10 26 14 26 11 0 -20 94 84 110 122 54 122 -3 302 -166 519 -30 40 -54 75
-54 78 0 3 29 5 65 3 48 -1 69 2 81 14 14 14 14 17 -1 32 -17 17 -21 17 -93
18 -23 0 -44 3 -47 7 -2 4 6 19 19 32 13 14 28 34 34 45 14 27 -2 54 -30 49
-24 -5 -21 -2 -41 -40 -9 -17 -16 -23 -17 -14 0 23 -44 61 -63 54 -26 -11 -27
-31 -1 -68 13 -20 24 -38 24 -40 0 -3 -19 -3 -42 -1 -24 1 -43 3 -43 4 0 1 -8
3 -17 5 -67 13 -237 71 -323 110 -165 76 -321 88 -480 36 -75 -24 -129 -38
-180 -47 -54 -10 -296 -10 -370 -1 -121 16 -231 36 -260 47 -16 6 -30 11 -30
10 0 -1 -17 1 -37 5 -46 9 -48 23 -12 85 46 79 107 253 130 365 24 120 23 345
-2 464 -12 57 -47 187 -52 196 -4 6 -7 15 -7 20 -2 29 -20 83 -41 121 -53 94
-197 294 -267 369 -44 47 -46 48 -47 24 0 -14 11 -47 24 -75 32 -68 63 -161
71 -214 4 -25 7 -49 8 -55 4 -23 -25 -7 -78 44 -46 44 -58 51 -70 41 -25 -21
-17 -65 31 -161 40 -80 74 -161 74 -176 0 -7 -69 36 -113 70 -41 32 -53 29
-61 -16 -6 -37 9 -80 56 -151 21 -33 38 -63 38 -67 0 -10 -41 2 -75 23 -46 27
-59 24 -51 -14 3 -18 10 -34 14 -38 12 -9 58 -74 65 -92 3 -9 0 -23 -6 -32
-11 -14 -16 -14 -54 6 -24 12 -45 19 -49 16 -3 -3 -8 -21 -11 -40 -6 -42 -20
-58 -48 -58 -36 0 -51 -76 -60 -310 -6 -143 -19 -197 -66 -276 -44 -71 -61
-76 -105 -27 -44 48 -174 243 -174 260 0 7 -4 13 -8 13 -5 0 -20 27 -33 60
-13 33 -27 60 -31 60 -5 0 -8 8 -8 18 0 10 -4 22 -8 28 -5 5 -18 34 -30 64
-12 30 -27 69 -33 85 -7 17 -13 35 -14 40 -2 6 -10 33 -20 60 -9 28 -18 57
-20 65 -2 8 -11 40 -20 70 -8 30 -17 64 -19 75 -3 11 -7 31 -10 45 -14 62 -29
136 -31 150 -1 8 -6 35 -10 60 -5 25 -9 56 -10 70 -2 14 -3 25 -4 25 -2 0 -4
16 -15 140 -3 33 -10 75 -15 93 -5 17 -8 32 -5 32 2 0 -12 33 -32 73 -47 93
-111 157 -292 292 -7 6 -22 18 -33 28 -10 9 -23 17 -27 17 -5 0 -17 9 -27 20
-10 11 -22 20 -28 20 -5 0 -22 10 -37 23 -30 24 -121 81 -132 81 -3 1 -10 4
-14 9 -15 15 -25 6 -18 -15z"/>
</g>
</svg>
